<mxfile host="app.diagrams.net" modified="2022-08-24T17:15:25.457Z" agent="5.0 (Windows NT 10.0; Win64; x64) AppleWebKit/537.36 (KHTML, like Gecko) Chrome/104.0.0.0 Safari/537.36" etag="4qnxCw3cCsAknCwwbPzc" version="20.2.7" type="github" pages="4">
  <diagram id="d07d2UhxyD9AuNvn-Q7s" name="business">
    <mxGraphModel dx="1038" dy="521" grid="1" gridSize="10" guides="1" tooltips="1" connect="1" arrows="1" fold="1" page="1" pageScale="1" pageWidth="827" pageHeight="1169" math="0" shadow="0">
      <root>
        <mxCell id="0" />
        <mxCell id="1" parent="0" />
        <mxCell id="jlOPP199Dn-r42HGDw51-1" value="&amp;lt;&amp;lt;Business&amp;gt;&amp;gt;&lt;br&gt;เจ้าหน้าที่" style="shape=umlActor;verticalLabelPosition=bottom;verticalAlign=top;html=1;outlineConnect=0;" parent="1" vertex="1">
          <mxGeometry x="80" y="280" width="30" height="60" as="geometry" />
        </mxCell>
        <mxCell id="jlOPP199Dn-r42HGDw51-6" value="&lt;font size=&quot;1&quot;&gt;&lt;b&gt;ในบทบาทของ &lt;/b&gt;เจ้าหน้าที่&lt;br&gt;&lt;b&gt;ฉันต้องการ &lt;/b&gt;จัดทำข้อมูลตารางการทำงานของแพทย์&lt;br&gt;&lt;b&gt;เพื่อ &lt;/b&gt;ให้รู้ตารางการทำงานของแพทย์&lt;br&gt;&lt;/font&gt;" style="shape=note;whiteSpace=wrap;html=1;backgroundOutline=1;darkOpacity=0.05;fontFamily=Helvetica;fontSize=15;align=left;" parent="1" vertex="1">
          <mxGeometry x="440" y="160" width="220" height="80" as="geometry" />
        </mxCell>
        <mxCell id="opvQodbytGO_dUgbWvIk-1" value="&amp;lt;&amp;lt;Business&amp;gt;&amp;gt;&lt;br&gt;จัดทำตารางงานแพทย์" style="ellipse;whiteSpace=wrap;html=1;" parent="1" vertex="1">
          <mxGeometry x="240" y="275" width="140" height="70" as="geometry" />
        </mxCell>
        <mxCell id="opvQodbytGO_dUgbWvIk-2" value="" style="endArrow=none;endFill=1;endSize=12;html=1;rounded=0;exitX=0.5;exitY=0.5;exitDx=0;exitDy=0;exitPerimeter=0;entryX=0;entryY=0.5;entryDx=0;entryDy=0;" parent="1" source="jlOPP199Dn-r42HGDw51-1" target="opvQodbytGO_dUgbWvIk-1" edge="1">
          <mxGeometry width="160" relative="1" as="geometry">
            <mxPoint x="250" y="250" as="sourcePoint" />
            <mxPoint x="410" y="250" as="targetPoint" />
          </mxGeometry>
        </mxCell>
        <mxCell id="opvQodbytGO_dUgbWvIk-7" value="" style="endArrow=none;endFill=1;endSize=12;html=1;rounded=0;entryX=0;entryY=0.5;entryDx=0;entryDy=0;entryPerimeter=0;" parent="1" source="opvQodbytGO_dUgbWvIk-1" target="jlOPP199Dn-r42HGDw51-6" edge="1">
          <mxGeometry width="160" relative="1" as="geometry">
            <mxPoint x="300" y="120" as="sourcePoint" />
            <mxPoint x="460" y="120" as="targetPoint" />
          </mxGeometry>
        </mxCell>
        <mxCell id="6XsFDC-IasH_FturlVIJ-1" value="Text" style="text;html=1;strokeColor=none;fillColor=none;align=center;verticalAlign=middle;whiteSpace=wrap;rounded=0;" vertex="1" parent="1">
          <mxGeometry x="90" y="100" width="60" height="30" as="geometry" />
        </mxCell>
      </root>
    </mxGraphModel>
  </diagram>
  <diagram id="3frO9ZT3zyMEt5IvWwBt" name="system">
    <mxGraphModel dx="830" dy="417" grid="1" gridSize="10" guides="1" tooltips="1" connect="1" arrows="1" fold="1" page="1" pageScale="1" pageWidth="827" pageHeight="1169" math="0" shadow="0">
      <root>
        <mxCell id="0" />
        <mxCell id="1" parent="0" />
        <mxCell id="xw9LFSSNM3f-qhONEZ43-1" value="&lt;span style=&quot;font-size: 16px;&quot;&gt;&lt;b&gt;&lt;u&gt;System Use Case Diagram&lt;/u&gt;&lt;/b&gt;&lt;/span&gt;" style="text;html=1;align=center;verticalAlign=middle;resizable=0;points=[];autosize=1;strokeColor=none;fillColor=none;" parent="1" vertex="1">
          <mxGeometry x="35" y="50" width="230" height="30" as="geometry" />
        </mxCell>
        <mxCell id="b3o143H-coBXkOB5_BIO-1" value="เจ้าหน้าที่" style="shape=umlActor;verticalLabelPosition=bottom;verticalAlign=top;html=1;" parent="1" vertex="1">
          <mxGeometry x="90" y="280" width="30" height="60" as="geometry" />
        </mxCell>
        <mxCell id="b3o143H-coBXkOB5_BIO-2" value="เข้าระบบในฐานะเจ้าหน้าที่&lt;br&gt;ระบบนัดหมาย" style="ellipse;whiteSpace=wrap;html=1;" parent="1" vertex="1">
          <mxGeometry x="265" y="275" width="140" height="70" as="geometry" />
        </mxCell>
        <mxCell id="b3o143H-coBXkOB5_BIO-3" value="" style="endArrow=open;endFill=1;endSize=12;html=1;rounded=0;" parent="1" edge="1">
          <mxGeometry width="160" relative="1" as="geometry">
            <mxPoint x="105" y="309" as="sourcePoint" />
            <mxPoint x="265" y="309.44" as="targetPoint" />
          </mxGeometry>
        </mxCell>
        <mxCell id="-kpCrcJINkI-k-5XS1tr-1" value="&amp;lt;&amp;lt;extend&amp;gt;&amp;gt;" style="html=1;verticalAlign=bottom;endArrow=open;dashed=1;endSize=8;rounded=0;entryX=0.893;entryY=0.214;entryDx=0;entryDy=0;entryPerimeter=0;" edge="1" parent="1" source="-kpCrcJINkI-k-5XS1tr-3" target="b3o143H-coBXkOB5_BIO-2">
          <mxGeometry relative="1" as="geometry">
            <mxPoint x="494" y="240" as="sourcePoint" />
            <mxPoint x="414" y="240" as="targetPoint" />
          </mxGeometry>
        </mxCell>
        <mxCell id="-kpCrcJINkI-k-5XS1tr-3" value="จัดตารางงานแพทย์" style="ellipse;whiteSpace=wrap;html=1;" vertex="1" parent="1">
          <mxGeometry x="480" y="150" width="140" height="70" as="geometry" />
        </mxCell>
      </root>
    </mxGraphModel>
  </diagram>
  <diagram id="V2rBmaSBH9fNc8fx6pn5" name="UI">
    <mxGraphModel dx="1038" dy="521" grid="1" gridSize="10" guides="1" tooltips="1" connect="1" arrows="1" fold="1" page="1" pageScale="1" pageWidth="827" pageHeight="1169" math="0" shadow="0">
      <root>
        <mxCell id="0" />
        <mxCell id="1" parent="0" />
        <mxCell id="9AihcTbnEIvnQuchmatb-1" value="Window Title" style="strokeWidth=1;shadow=0;dashed=0;align=center;html=1;shape=mxgraph.mockup.containers.window;align=left;verticalAlign=top;spacingLeft=8;strokeColor2=#008cff;strokeColor3=#c4c4c4;fontColor=#666666;mainText=;fontSize=17;labelBackgroundColor=none;" vertex="1" parent="1">
          <mxGeometry width="820" height="1160" as="geometry" />
        </mxCell>
      </root>
    </mxGraphModel>
  </diagram>
  <diagram id="EHouv-GINwppC9flkugI" name="entity">
    <mxGraphModel dx="1038" dy="521" grid="1" gridSize="10" guides="1" tooltips="1" connect="1" arrows="1" fold="1" page="1" pageScale="1" pageWidth="827" pageHeight="1169" math="0" shadow="0">
      <root>
        <mxCell id="0" />
        <mxCell id="1" parent="0" />
        <mxCell id="dZDWxKGCdLtsqVaeqa4z-4" value="Doctor" style="ellipse;whiteSpace=wrap;html=1;fillColor=#d5e8d4;strokeColor=#82b366;" parent="1" vertex="1">
          <mxGeometry x="356" y="110" width="116" height="110" as="geometry" />
        </mxCell>
        <mxCell id="dZDWxKGCdLtsqVaeqa4z-5" value="Location" style="ellipse;whiteSpace=wrap;html=1;fillColor=#d5e8d4;strokeColor=#82b366;" parent="1" vertex="1">
          <mxGeometry x="356" y="310" width="116" height="110" as="geometry" />
        </mxCell>
        <mxCell id="dZDWxKGCdLtsqVaeqa4z-6" value="Officer" style="ellipse;whiteSpace=wrap;html=1;fillColor=#d5e8d4;strokeColor=#82b366;" parent="1" vertex="1">
          <mxGeometry x="120" y="110" width="116" height="110" as="geometry" />
        </mxCell>
        <mxCell id="dZDWxKGCdLtsqVaeqa4z-7" value="Doctor schedule" style="ellipse;whiteSpace=wrap;html=1;fillColor=#ffe6cc;strokeColor=#d79b00;" parent="1" vertex="1">
          <mxGeometry x="120" y="310" width="116" height="110" as="geometry" />
        </mxCell>
        <mxCell id="dZDWxKGCdLtsqVaeqa4z-8" value="" style="endArrow=none;endFill=1;endSize=12;html=1;rounded=0;exitX=1;exitY=0;exitDx=0;exitDy=0;entryX=0;entryY=1;entryDx=0;entryDy=0;" parent="1" source="dZDWxKGCdLtsqVaeqa4z-7" target="dZDWxKGCdLtsqVaeqa4z-4" edge="1">
          <mxGeometry width="160" relative="1" as="geometry">
            <mxPoint x="226" y="290" as="sourcePoint" />
            <mxPoint x="386" y="290" as="targetPoint" />
          </mxGeometry>
        </mxCell>
        <mxCell id="dZDWxKGCdLtsqVaeqa4z-14" value="1" style="edgeLabel;html=1;align=center;verticalAlign=middle;resizable=0;points=[];" parent="dZDWxKGCdLtsqVaeqa4z-8" vertex="1" connectable="0">
          <mxGeometry x="-0.8283" y="-3" relative="1" as="geometry">
            <mxPoint x="116" y="-118" as="offset" />
          </mxGeometry>
        </mxCell>
        <mxCell id="dZDWxKGCdLtsqVaeqa4z-15" value="0..*" style="edgeLabel;html=1;align=center;verticalAlign=middle;resizable=0;points=[];" parent="dZDWxKGCdLtsqVaeqa4z-8" vertex="1" connectable="0">
          <mxGeometry x="0.7238" y="1" relative="1" as="geometry">
            <mxPoint x="-131" y="80" as="offset" />
          </mxGeometry>
        </mxCell>
        <mxCell id="dZDWxKGCdLtsqVaeqa4z-17" value="0..*" style="edgeLabel;html=1;align=center;verticalAlign=middle;resizable=0;points=[];" parent="dZDWxKGCdLtsqVaeqa4z-8" vertex="1" connectable="0">
          <mxGeometry x="0.7238" y="1" relative="1" as="geometry">
            <mxPoint x="-101" y="130" as="offset" />
          </mxGeometry>
        </mxCell>
        <mxCell id="dZDWxKGCdLtsqVaeqa4z-9" value="" style="endArrow=none;endFill=1;endSize=12;html=1;rounded=0;exitX=1;exitY=0.5;exitDx=0;exitDy=0;entryX=0;entryY=0.5;entryDx=0;entryDy=0;" parent="1" source="dZDWxKGCdLtsqVaeqa4z-7" target="dZDWxKGCdLtsqVaeqa4z-5" edge="1">
          <mxGeometry width="160" relative="1" as="geometry">
            <mxPoint x="260" y="450" as="sourcePoint" />
            <mxPoint x="420" y="450" as="targetPoint" />
          </mxGeometry>
        </mxCell>
        <mxCell id="dZDWxKGCdLtsqVaeqa4z-16" value="1" style="edgeLabel;html=1;align=center;verticalAlign=middle;resizable=0;points=[];" parent="dZDWxKGCdLtsqVaeqa4z-9" vertex="1" connectable="0">
          <mxGeometry x="-0.7867" y="-1" relative="1" as="geometry">
            <mxPoint x="91" y="-16" as="offset" />
          </mxGeometry>
        </mxCell>
        <mxCell id="dZDWxKGCdLtsqVaeqa4z-11" value="" style="endArrow=none;endFill=1;endSize=12;html=1;rounded=0;exitX=0.5;exitY=1;exitDx=0;exitDy=0;entryX=0.5;entryY=0;entryDx=0;entryDy=0;" parent="1" source="dZDWxKGCdLtsqVaeqa4z-6" target="dZDWxKGCdLtsqVaeqa4z-7" edge="1">
          <mxGeometry width="160" relative="1" as="geometry">
            <mxPoint x="120" y="290" as="sourcePoint" />
            <mxPoint x="280" y="290" as="targetPoint" />
          </mxGeometry>
        </mxCell>
        <mxCell id="dZDWxKGCdLtsqVaeqa4z-12" value="0..*" style="edgeLabel;html=1;align=center;verticalAlign=middle;resizable=0;points=[];" parent="dZDWxKGCdLtsqVaeqa4z-11" vertex="1" connectable="0">
          <mxGeometry x="-0.5644" y="3" relative="1" as="geometry">
            <mxPoint x="-21" y="50" as="offset" />
          </mxGeometry>
        </mxCell>
        <mxCell id="dZDWxKGCdLtsqVaeqa4z-13" value="1" style="edgeLabel;html=1;align=center;verticalAlign=middle;resizable=0;points=[];" parent="dZDWxKGCdLtsqVaeqa4z-11" vertex="1" connectable="0">
          <mxGeometry x="0.5689" y="-3" relative="1" as="geometry">
            <mxPoint x="-15" y="-51" as="offset" />
          </mxGeometry>
        </mxCell>
      </root>
    </mxGraphModel>
  </diagram>
</mxfile>
